<mxfile host="app.diagrams.net" agent="Mozilla/5.0 (Windows NT 10.0; Win64; x64) AppleWebKit/537.36 (KHTML, like Gecko) Chrome/131.0.0.0 Safari/537.36" version="25.0.3">
  <diagram id="C5RBs43oDa-KdzZeNtuy" name="Page-1">
    <mxGraphModel dx="1050" dy="557" grid="1" gridSize="10" guides="1" tooltips="1" connect="1" arrows="1" fold="1" page="1" pageScale="1" pageWidth="827" pageHeight="1169" math="0" shadow="0">
      <root>
        <mxCell id="WIyWlLk6GJQsqaUBKTNV-0" />
        <mxCell id="WIyWlLk6GJQsqaUBKTNV-1" parent="WIyWlLk6GJQsqaUBKTNV-0" />
        <mxCell id="fF_VTqfdosXnGZxM1HwJ-2" value="" style="edgeStyle=orthogonalEdgeStyle;rounded=0;orthogonalLoop=1;jettySize=auto;html=1;" edge="1" parent="WIyWlLk6GJQsqaUBKTNV-1" source="fF_VTqfdosXnGZxM1HwJ-0" target="fF_VTqfdosXnGZxM1HwJ-1">
          <mxGeometry relative="1" as="geometry" />
        </mxCell>
        <mxCell id="fF_VTqfdosXnGZxM1HwJ-0" value="Start" style="ellipse;whiteSpace=wrap;html=1;" vertex="1" parent="WIyWlLk6GJQsqaUBKTNV-1">
          <mxGeometry x="340" width="120" height="80" as="geometry" />
        </mxCell>
        <mxCell id="fF_VTqfdosXnGZxM1HwJ-6" value="" style="edgeStyle=orthogonalEdgeStyle;rounded=0;orthogonalLoop=1;jettySize=auto;html=1;" edge="1" parent="WIyWlLk6GJQsqaUBKTNV-1" source="fF_VTqfdosXnGZxM1HwJ-1" target="fF_VTqfdosXnGZxM1HwJ-5">
          <mxGeometry relative="1" as="geometry" />
        </mxCell>
        <mxCell id="fF_VTqfdosXnGZxM1HwJ-1" value="n" style="rounded=0;whiteSpace=wrap;html=1;" vertex="1" parent="WIyWlLk6GJQsqaUBKTNV-1">
          <mxGeometry x="340" y="120" width="120" height="60" as="geometry" />
        </mxCell>
        <mxCell id="fF_VTqfdosXnGZxM1HwJ-10" value="TRUE" style="edgeStyle=orthogonalEdgeStyle;rounded=0;orthogonalLoop=1;jettySize=auto;html=1;" edge="1" parent="WIyWlLk6GJQsqaUBKTNV-1" source="fF_VTqfdosXnGZxM1HwJ-3" target="fF_VTqfdosXnGZxM1HwJ-9">
          <mxGeometry relative="1" as="geometry" />
        </mxCell>
        <mxCell id="fF_VTqfdosXnGZxM1HwJ-12" style="edgeStyle=orthogonalEdgeStyle;rounded=0;orthogonalLoop=1;jettySize=auto;html=1;exitX=0;exitY=0.5;exitDx=0;exitDy=0;entryX=0;entryY=0.5;entryDx=0;entryDy=0;" edge="1" parent="WIyWlLk6GJQsqaUBKTNV-1" source="fF_VTqfdosXnGZxM1HwJ-3" target="fF_VTqfdosXnGZxM1HwJ-11">
          <mxGeometry relative="1" as="geometry">
            <Array as="points">
              <mxPoint x="90" y="420" />
              <mxPoint x="90" y="910" />
            </Array>
          </mxGeometry>
        </mxCell>
        <mxCell id="fF_VTqfdosXnGZxM1HwJ-13" value="FALSE" style="edgeLabel;html=1;align=center;verticalAlign=middle;resizable=0;points=[];" vertex="1" connectable="0" parent="fF_VTqfdosXnGZxM1HwJ-12">
          <mxGeometry x="-0.6104" y="3" relative="1" as="geometry">
            <mxPoint as="offset" />
          </mxGeometry>
        </mxCell>
        <mxCell id="fF_VTqfdosXnGZxM1HwJ-3" value="i &amp;lt;= n" style="rhombus;whiteSpace=wrap;html=1;" vertex="1" parent="WIyWlLk6GJQsqaUBKTNV-1">
          <mxGeometry x="340" y="380" width="120" height="80" as="geometry" />
        </mxCell>
        <mxCell id="fF_VTqfdosXnGZxM1HwJ-16" value="" style="edgeStyle=orthogonalEdgeStyle;rounded=0;orthogonalLoop=1;jettySize=auto;html=1;" edge="1" parent="WIyWlLk6GJQsqaUBKTNV-1" source="fF_VTqfdosXnGZxM1HwJ-5" target="fF_VTqfdosXnGZxM1HwJ-15">
          <mxGeometry relative="1" as="geometry" />
        </mxCell>
        <mxCell id="fF_VTqfdosXnGZxM1HwJ-5" value="n,i=1" style="shape=parallelogram;perimeter=parallelogramPerimeter;whiteSpace=wrap;html=1;fixedSize=1;" vertex="1" parent="WIyWlLk6GJQsqaUBKTNV-1">
          <mxGeometry x="340" y="220" width="120" height="60" as="geometry" />
        </mxCell>
        <mxCell id="fF_VTqfdosXnGZxM1HwJ-22" value="TRUE" style="edgeStyle=orthogonalEdgeStyle;rounded=0;orthogonalLoop=1;jettySize=auto;html=1;" edge="1" parent="WIyWlLk6GJQsqaUBKTNV-1" source="fF_VTqfdosXnGZxM1HwJ-9">
          <mxGeometry relative="1" as="geometry">
            <mxPoint x="400" y="690" as="targetPoint" />
          </mxGeometry>
        </mxCell>
        <mxCell id="fF_VTqfdosXnGZxM1HwJ-29" value="FALSE" style="edgeStyle=orthogonalEdgeStyle;rounded=0;orthogonalLoop=1;jettySize=auto;html=1;exitX=1;exitY=0.5;exitDx=0;exitDy=0;entryX=0.5;entryY=0;entryDx=0;entryDy=0;" edge="1" parent="WIyWlLk6GJQsqaUBKTNV-1" source="fF_VTqfdosXnGZxM1HwJ-9" target="fF_VTqfdosXnGZxM1HwJ-24">
          <mxGeometry relative="1" as="geometry" />
        </mxCell>
        <mxCell id="fF_VTqfdosXnGZxM1HwJ-9" value="n % i == 0" style="rhombus;whiteSpace=wrap;html=1;" vertex="1" parent="WIyWlLk6GJQsqaUBKTNV-1">
          <mxGeometry x="340" y="550" width="120" height="80" as="geometry" />
        </mxCell>
        <mxCell id="fF_VTqfdosXnGZxM1HwJ-11" value="End" style="ellipse;whiteSpace=wrap;html=1;" vertex="1" parent="WIyWlLk6GJQsqaUBKTNV-1">
          <mxGeometry x="340" y="870" width="120" height="80" as="geometry" />
        </mxCell>
        <mxCell id="fF_VTqfdosXnGZxM1HwJ-17" value="" style="edgeStyle=orthogonalEdgeStyle;rounded=0;orthogonalLoop=1;jettySize=auto;html=1;" edge="1" parent="WIyWlLk6GJQsqaUBKTNV-1" source="fF_VTqfdosXnGZxM1HwJ-15" target="fF_VTqfdosXnGZxM1HwJ-3">
          <mxGeometry relative="1" as="geometry" />
        </mxCell>
        <mxCell id="fF_VTqfdosXnGZxM1HwJ-15" value="Start for" style="ellipse;whiteSpace=wrap;html=1;aspect=fixed;fillColor=#dae8fc;strokeColor=#6c8ebf;" vertex="1" parent="WIyWlLk6GJQsqaUBKTNV-1">
          <mxGeometry x="380" y="320" width="40" height="40" as="geometry" />
        </mxCell>
        <mxCell id="fF_VTqfdosXnGZxM1HwJ-25" style="edgeStyle=orthogonalEdgeStyle;rounded=0;orthogonalLoop=1;jettySize=auto;html=1;exitX=1;exitY=0.5;exitDx=0;exitDy=0;entryX=0;entryY=0.5;entryDx=0;entryDy=0;" edge="1" parent="WIyWlLk6GJQsqaUBKTNV-1" source="fF_VTqfdosXnGZxM1HwJ-18" target="fF_VTqfdosXnGZxM1HwJ-24">
          <mxGeometry relative="1" as="geometry" />
        </mxCell>
        <mxCell id="fF_VTqfdosXnGZxM1HwJ-18" value="i" style="shape=parallelogram;perimeter=parallelogramPerimeter;whiteSpace=wrap;html=1;fixedSize=1;" vertex="1" parent="WIyWlLk6GJQsqaUBKTNV-1">
          <mxGeometry x="340" y="690" width="120" height="60" as="geometry" />
        </mxCell>
        <mxCell id="fF_VTqfdosXnGZxM1HwJ-28" style="edgeStyle=orthogonalEdgeStyle;rounded=0;orthogonalLoop=1;jettySize=auto;html=1;exitX=1;exitY=0.5;exitDx=0;exitDy=0;entryX=1;entryY=0.5;entryDx=0;entryDy=0;" edge="1" parent="WIyWlLk6GJQsqaUBKTNV-1" source="fF_VTqfdosXnGZxM1HwJ-24" target="fF_VTqfdosXnGZxM1HwJ-3">
          <mxGeometry relative="1" as="geometry" />
        </mxCell>
        <mxCell id="fF_VTqfdosXnGZxM1HwJ-24" value="i++" style="rounded=0;whiteSpace=wrap;html=1;" vertex="1" parent="WIyWlLk6GJQsqaUBKTNV-1">
          <mxGeometry x="590" y="690" width="120" height="60" as="geometry" />
        </mxCell>
      </root>
    </mxGraphModel>
  </diagram>
</mxfile>
